<svg width="10" height="6" viewBox="0 0 10 6" fill="none" xmlns="http://www.w3.org/2000/svg">
<path fill-rule="evenodd" clip-rule="evenodd" d="M5.7066 5.70676C5.5191 5.89402 5.26493 5.99921 4.99993 5.99921C4.73493 5.99921 4.48077 5.89402 4.29327 5.70676L0.521267 1.93609C0.333759 1.74849 0.228453 1.49409 0.228516 1.22885C0.228578 0.963614 0.334004 0.709264 0.5216 0.521756C0.709197 0.334247 0.963597 0.228941 1.22884 0.229004C1.49408 0.229066 1.74843 0.334492 1.93593 0.522089L4.99993 3.58609L8.06393 0.522089C8.25245 0.33984 8.50501 0.238925 8.7672 0.241079C9.0294 0.243233 9.28027 0.348283 9.46576 0.533605C9.65126 0.718926 9.75655 0.96969 9.75895 1.23189C9.76135 1.49408 9.66067 1.74673 9.4786 1.93542L5.70727 5.70742L5.7066 5.70676Z" fill="white"/>
</svg>
