<svg xmlns="http://www.w3.org/2000/svg" width="600" height="600" viewBox="0 0 600 600"><rect width="100%" height="100%" fill="#DDDDDD"/><path fill="#999999" d="M146.425 281.59h-17.65v11.77h14.9v5.91h-14.9v16.2h-7.43V275.7h25.08v5.89Zm19.89 26.59v-4.75q-2.95.13-4.95.5-2.01.37-3.22.95-1.21.58-1.73 1.35-.53.77-.53 1.68 0 1.78 1.06 2.56 1.06.76 2.77.76 2.09 0 3.61-.75 1.53-.76 2.99-2.3Zm-14.36-14.82-1.21-2.17q4.87-4.46 11.72-4.46 2.47 0 4.42.81 1.96.82 3.3 2.26 1.35 1.44 2.05 3.45.7 2.01.7 4.4v17.82h-3.08q-.96 0-1.48-.29t-.83-1.17l-.6-2.03q-1.07.96-2.09 1.69-1.02.73-2.12 1.22-1.1.5-2.35.76t-2.76.26q-1.79 0-3.3-.48-1.52-.48-2.62-1.45-1.1-.96-1.7-2.39-.61-1.43-.61-3.33 0-1.07.36-2.13.36-1.05 1.17-2.02.81-.96 2.1-1.81 1.3-.86 3.18-1.49 1.88-.63 4.39-1.03 2.5-.4 5.72-.48v-1.65q0-2.83-1.21-4.19-1.21-1.37-3.5-1.37-1.65 0-2.73.39-1.09.38-1.91.87-.83.48-1.5.86-.68.39-1.5.39-.72 0-1.21-.37-.5-.37-.8-.87Zm27.45-18.76h6.79v40.87h-6.79V274.6Zm13.66 0h6.8v40.87h-6.8V274.6Zm20.38 20.91v12.64q1.16 1.41 2.52 1.99 1.36.57 2.87.57 1.57 0 2.82-.56 1.25-.56 2.13-1.76.88-1.2 1.35-3.05.47-1.86.47-4.44 0-4.65-1.54-6.73t-4.43-2.08q-1.95 0-3.41.9-1.46.89-2.78 2.52Zm0-20.91v16.12q1.71-1.79 3.78-2.85 2.08-1.06 4.75-1.06 2.44 0 4.41.97 1.97.96 3.35 2.76 1.39 1.8 2.14 4.36.74 2.56.74 5.75 0 3.44-.85 6.24-.86 2.8-2.44 4.8-1.58 1.99-3.81 3.09-2.22 1.1-4.95 1.1-1.32 0-2.39-.26t-1.98-.73q-.91-.46-1.66-1.14-.76-.67-1.45-1.5l-.3 1.9q-.16.72-.56 1.02-.4.3-1.09.3h-4.48V274.6h6.79Zm39.33 33.58v-4.75q-2.95.13-4.95.5-2.01.37-3.22.95-1.21.58-1.73 1.35-.53.77-.53 1.68 0 1.78 1.06 2.56 1.06.76 2.77.76 2.09 0 3.61-.75 1.53-.76 2.99-2.3Zm-14.36-14.82-1.21-2.17q4.87-4.46 11.72-4.46 2.47 0 4.42.81 1.96.82 3.3 2.26 1.35 1.44 2.05 3.45.7 2.01.7 4.4v17.82h-3.08q-.96 0-1.48-.29t-.83-1.17l-.6-2.03q-1.07.96-2.09 1.69-1.02.73-2.12 1.22-1.1.5-2.35.76t-2.76.26q-1.79 0-3.3-.48-1.52-.48-2.62-1.45-1.1-.96-1.7-2.39-.61-1.43-.61-3.33 0-1.07.36-2.13.36-1.05 1.17-2.02.81-.96 2.1-1.81 1.3-.86 3.18-1.49 1.88-.63 4.39-1.03 2.5-.4 5.72-.48v-1.65q0-2.83-1.21-4.19-1.21-1.37-3.5-1.37-1.65 0-2.73.39-1.09.38-1.91.87-.83.48-1.5.86-.68.39-1.5.39-.72 0-1.21-.37-.5-.37-.8-.87Zm49.36-2.61-1.78 2.47q-.31.39-.6.61-.28.22-.83.22-.53 0-1.02-.32-.5-.31-1.18-.71-.69-.4-1.64-.72-.95-.31-2.35-.31-1.79 0-3.14.64-1.34.65-2.24 1.86-.89 1.21-1.33 2.93-.44 1.71-.44 3.89 0 2.25.48 4.01.48 1.76 1.39 2.96.91 1.19 2.2 1.81 1.29.62 2.91.62 1.63 0 2.63-.4 1-.39 1.69-.88.69-.48 1.2-.88t1.14-.4q.82 0 1.24.64l1.95 2.47q-1.13 1.32-2.45 2.22-1.32.89-2.74 1.43-1.41.53-2.91.75-1.5.22-2.98.22-2.62 0-4.93-.97-2.31-.98-4.04-2.85t-2.74-4.58q-1-2.71-1-6.17 0-3.11.89-5.76.9-2.66 2.63-4.6 1.73-1.94 4.29-3.03 2.56-1.11 5.89-1.11 3.16 0 5.54 1.02t4.27 2.92Zm4.51-16.15h6.8v23.41h1.26q.69 0 1.09-.18.4-.18.81-.73l7.01-8.66q.44-.58.98-.88.53-.3 1.39-.3h6.21l-8.77 10.47q-.94 1.24-2.04 1.9.58.41 1.03.96.46.55.87 1.18l9.41 13.7h-6.14q-.79 0-1.37-.26-.58-.26-.96-.95l-7.21-10.7q-.38-.63-.8-.82-.41-.2-1.23-.2h-1.54v12.93h-6.8V274.6Zm51.26 1.1v39.77h-7.42V275.7h7.42Zm14.61 39.77h-6.8v-28.21h4.16q1.32 0 1.73 1.23l.44 2.09q.74-.82 1.55-1.51.81-.69 1.73-1.18.93-.5 1.99-.79 1.05-.29 2.32-.29 2.67 0 4.38 1.45 1.72 1.44 2.58 3.83.66-1.4 1.65-2.4.99-1.01 2.17-1.64 1.18-.63 2.51-.93 1.34-.31 2.69-.31 2.33 0 4.15.72 1.81.71 3.05 2.09 1.24 1.37 1.89 3.35.64 1.98.64 4.54v17.96h-6.79v-17.96q0-2.69-1.18-4.05-1.19-1.37-3.47-1.37-1.04 0-1.94.36-.89.36-1.57 1.03-.67.68-1.05 1.69-.39 1.02-.39 2.34v17.96h-6.82v-17.96q0-2.83-1.14-4.12-1.14-1.3-3.34-1.3-1.49 0-2.77.73-1.27.73-2.37 2v20.65Zm54.17-7.29v-4.75q-2.94.13-4.95.5-2.01.37-3.22.95-1.21.58-1.73 1.35-.52.77-.52 1.68 0 1.78 1.06 2.56 1.06.76 2.76.76 2.09 0 3.62-.75 1.52-.76 2.98-2.3Zm-14.35-14.82-1.21-2.17q4.86-4.46 11.71-4.46 2.48 0 4.43.81 1.95.82 3.3 2.26 1.35 1.44 2.05 3.45.7 2.01.7 4.4v17.82h-3.08q-.96 0-1.49-.29-.52-.29-.82-1.17l-.61-2.03q-1.07.96-2.09 1.69-1.01.73-2.11 1.22-1.1.5-2.36.76-1.25.26-2.76.26-1.79 0-3.3-.48-1.51-.48-2.61-1.45-1.1-.96-1.71-2.39-.6-1.43-.6-3.33 0-1.07.36-2.13.35-1.05 1.16-2.02.82-.96 2.11-1.81 1.29-.86 3.17-1.49 1.89-.63 4.39-1.03t5.72-.48v-1.65q0-2.83-1.21-4.19-1.21-1.37-3.49-1.37-1.65 0-2.74.39-1.08.38-1.91.87-.82.48-1.5.86-.67.39-1.5.39-.71 0-1.21-.37-.49-.37-.79-.87Zm37.67 7.32q1.27 0 2.2-.35.94-.34 1.56-.95.61-.6.93-1.46.32-.85.32-1.86 0-2.09-1.25-3.32-1.26-1.22-3.76-1.22t-3.75 1.22q-1.25 1.23-1.25 3.32 0 .98.31 1.84.32.85.94 1.47.62.62 1.56.96.95.35 2.19.35Zm7.67 16.05q0-.82-.49-1.34-.5-.52-1.35-.81-.85-.29-1.99-.43-1.14-.14-2.42-.21-1.28-.06-2.64-.12t-2.66-.22q-1.12.63-1.83 1.48-.7.86-.7 1.98 0 .75.37 1.39.38.65 1.19 1.12.81.47 2.1.73t3.16.26q1.9 0 3.28-.29 1.37-.29 2.26-.8.9-.51 1.31-1.21.41-.7.41-1.53Zm-1.34-28.51h8.11v2.53q0 1.21-1.46 1.48l-2.53.47q.58 1.46.58 3.19 0 2.09-.84 3.78t-2.32 2.87q-1.49 1.19-3.51 1.83-2.02.65-4.36.65-.82 0-1.59-.08-.77-.09-1.52-.22-1.32.79-1.32 1.79 0 .85.79 1.25.78.39 2.07.56 1.3.16 2.95.21 1.65.04 3.38.18 1.73.13 3.38.48 1.65.34 2.94 1.08 1.3.74 2.08 2.02t.78 3.29q0 1.87-.92 3.63-.92 1.76-2.67 3.14-1.74 1.37-4.29 2.21-2.54.84-5.78.84-3.19 0-5.56-.62-2.36-.62-3.93-1.65-1.57-1.03-2.34-2.38-.77-1.35-.77-2.8 0-1.99 1.2-3.32 1.19-1.33 3.28-2.13-1.12-.58-1.78-1.54-.66-.96-.66-2.53 0-.63.23-1.31.23-.67.69-1.33.45-.66 1.14-1.25t1.62-1.06q-2.14-1.15-3.37-3.08-1.22-1.93-1.22-4.51 0-2.09.84-3.78t2.33-2.89q1.5-1.2 3.55-1.83 2.05-.63 4.47-.63 1.82 0 3.41.37 1.6.37 2.92 1.09Zm17.76 9.9h12.82q0-1.32-.38-2.49-.37-1.17-1.11-2.05-.74-.88-1.88-1.39-1.14-.51-2.66-.51-2.94 0-4.63 1.68t-2.16 4.76Zm17.33 4.09h-17.47q.17 2.18.77 3.76.61 1.58 1.6 2.61.99 1.03 2.35 1.54t3.01.51q1.65 0 2.85-.38 1.19-.39 2.09-.86.89-.46 1.56-.85.68-.39 1.31-.39.85 0 1.27.64l1.95 2.47q-1.13 1.32-2.53 2.22-1.4.89-2.93 1.43-1.53.53-3.11.75-1.58.22-3.06.22-2.95 0-5.48-.97-2.53-.98-4.4-2.89-1.87-1.91-2.94-4.73-1.07-2.82-1.07-6.53 0-2.89.93-5.43.94-2.55 2.68-4.43 1.75-1.89 4.27-2.98 2.51-1.11 5.68-1.11 2.66 0 4.92.86 2.25.85 3.88 2.49 1.62 1.63 2.54 4.01.92 2.38.92 5.43 0 1.54-.33 2.08-.33.53-1.26.53Z"/></svg>